<svg fill="#000000" viewBox="0 0 32 32" id="icon" xmlns="http://www.w3.org/2000/svg"><g id="SVGRepo_bgCarrier" stroke-width="0"></g><g id="SVGRepo_tracerCarrier" stroke-linecap="round" stroke-linejoin="round"></g><g id="SVGRepo_iconCarrier"><defs><style>.cls-1{fill:none;}</style></defs><title>run</title><path d="M21,16a6,6,0,1,1-6,6,6,6,0,0,1,6-6m0-2a8,8,0,1,0,8,8,8,8,0,0,0-8-8Z"></path><path d="M26,4H6A2,2,0,0,0,4,6V26a2,2,0,0,0,2,2h4V26H6V12H28V6A2,2,0,0,0,26,4ZM6,10V6H26v4Z"></path><polygon points="19 19 19 25 24 22 19 19"></polygon><rect id="_Transparent_Rectangle_" class="cls-1" width="32" height="32"></rect></g></svg>